<?xml version="1.0" standalone="no"?>
<!DOCTYPE svg PUBLIC "-//W3C//DTD SVG 20010904//EN"
 "http://www.w3.org/TR/2001/REC-SVG-20010904/DTD/svg10.dtd">
<svg version="1.0" xmlns="http://www.w3.org/2000/svg"
 width="1024.000000pt" height="1024.000000pt" viewBox="0 0 1024.000000 1024.000000"
 preserveAspectRatio="xMidYMid meet">
<g transform="translate(0.000000,1024.000000) scale(0.100000,-0.100000)"
fill="#000000" stroke="none">
<path d="M2697 8994 c-1 -1 -42 -4 -92 -7 -49 -4 -106 -9 -125 -11 -136 -21
-169 -26 -235 -43 -33 -8 -69 -17 -79 -19 -11 -2 -49 -13 -85 -25 -323 -103
-610 -266 -840 -475 -97 -89 -105 -97 -190 -193 -250 -286 -433 -639 -541
-1046 -30 -115 -32 -121 -56 -250 -17 -96 -19 -113 -43 -345 -8 -77 -6 -541 2
-595 3 -16 8 -59 12 -95 50 -492 238 -989 511 -1352 126 -167 242 -286 409
-419 136 -110 379 -252 540 -316 70 -28 152 -57 199 -70 109 -31 152 -42 176
-47 14 -3 36 -7 50 -11 29 -6 126 -22 185 -29 22 -3 60 -8 85 -12 70 -10 439
-11 521 -2 217 26 468 79 554 117 11 5 36 15 55 22 97 35 219 105 309 178 55
44 83 48 77 12 -2 -14 -5 -239 -5 -498 l-1 -473 -943 0 -942 0 1 -868 c1 -477
2 -869 3 -872 0 -3 871 -5 1934 -5 l1932 0 2 3780 c0 2079 -1 3787 -3 3795 -3
13 -114 15 -925 15 l-921 0 6 -155 c3 -85 7 -166 8 -180 5 -41 -23 -30 -101
40 -113 101 -235 184 -366 249 -106 54 -285 121 -355 135 -14 3 -65 13 -115
24 -84 18 -117 23 -255 38 -52 6 -348 13 -353 8z m773 -1759 c62 -12 205 -63
256 -91 271 -150 419 -420 430 -784 10 -317 -85 -577 -275 -752 -153 -142
-342 -212 -581 -217 -463 -8 -792 271 -867 739 -10 58 -10 309 -1 380 34 259
183 495 388 618 79 47 216 97 295 107 28 4 52 9 54 11 6 6 261 -3 301 -11z"/>
<path d="M6389 8848 c0 -4 0 -2152 0 -3411 l1 -997 593 2 592 3 1 804 c1 635
4 805 14 811 31 19 59 -5 105 -95 71 -135 164 -313 200 -380 18 -33 59 -112
92 -175 33 -63 89 -169 123 -235 35 -66 79 -149 98 -185 19 -36 61 -117 94
-180 33 -63 87 -167 121 -230 33 -63 65 -121 71 -128 9 -9 153 -12 678 -10
l666 3 -47 85 c-26 47 -62 112 -80 145 -34 60 -204 366 -256 460 -15 28 -40
73 -55 100 -15 28 -99 178 -185 335 -87 157 -180 323 -205 370 -26 47 -68 122
-93 168 l-46 82 77 37 c88 42 253 147 299 190 17 16 46 43 65 59 18 17 51 50
73 75 131 147 206 277 266 460 64 197 80 434 43 659 -27 167 -126 413 -216
535 -221 300 -495 491 -838 584 -216 58 -233 59 -1287 60 -530 1 -963 0 -964
-1z m1813 -1047 c201 -52 322 -210 321 -421 -2 -222 -135 -378 -363 -426 -53
-11 -570 -12 -577 -1 -4 7 -8 789 -4 855 1 9 63 12 274 12 237 0 284 -3 349
-19z"/>
</g>
</svg>
